<mxfile host="app.diagrams.net" modified="2024-03-23T02:07:53.992Z" agent="Mozilla/5.0 (Windows NT 10.0; Win64; x64) AppleWebKit/537.36 (KHTML, like Gecko) Chrome/122.0.0.0 Safari/537.36" version="24.0.8" etag="fnmpPB2FO-eKumqaG7jw" type="github">
  <diagram name="PÃ¡gina-1" id="C7dzj7LapUl_BElg6VU9">
    <mxGraphModel>
      <root>
        <mxCell id="0" />
        <mxCell id="1" parent="0" />
      </root>
    </mxGraphModel>
  </diagram>
</mxfile>
